<svg id="visual" viewBox="0 0 1920 1080" width="1920" height="1080" xmlns="http://www.w3.org/2000/svg" xmlns:xlink="http://www.w3.org/1999/xlink" version="1.1"><rect x="0" y="0" width="1920" height="1080" fill="#00fdda"></rect><path d="M0 858L53.3 840C106.7 822 213.3 786 320 796.3C426.7 806.7 533.3 863.3 640 890.2C746.7 917 853.3 914 960 880.7C1066.7 847.3 1173.3 783.7 1280 781.2C1386.7 778.7 1493.3 837.3 1600 843C1706.7 848.7 1813.3 801.3 1866.7 777.7L1920 754L1920 1081L1866.7 1081C1813.3 1081 1706.7 1081 1600 1081C1493.3 1081 1386.7 1081 1280 1081C1173.3 1081 1066.7 1081 960 1081C853.3 1081 746.7 1081 640 1081C533.3 1081 426.7 1081 320 1081C213.3 1081 106.7 1081 53.3 1081L0 1081Z" fill="#1b6bff" stroke-linecap="round" stroke-linejoin="miter"></path></svg>